Coordinates
version=1
nRows=8
nColumns=63
inDegrees=yes

Units are S.I. units (second, meters, Newtons, ...)
If the header above contains a line with 'inDegrees', this indicates whether rotational values are in degrees (yes) or radians (no).

endheader
time	pelvis_tilt	pelvis_list	pelvis_rotation	pelvis_tx	pelvis_ty	pelvis_tz	hip_flexion_r	hip_adduction_r	hip_rotation_r	knee_angle_r	knee_angle_r_beta	ankle_angle_r	subtalar_angle_r	mtp_angle_r	hip_flexion_l	hip_adduction_l	hip_rotation_l	knee_angle_l	knee_angle_l_beta	ankle_angle_l	subtalar_angle_l	mtp_angle_l	L5_S1_Flex_Ext	L5_S1_Lat_Bending	L5_S1_axial_rotation	L4_L5_Flex_Ext	L4_L5_Lat_Bending	L4_L5_axial_rotation	L3_L4_Flex_Ext	L3_L4_Lat_Bending	L3_L4_axial_rotation	L2_L3_Flex_Ext	L2_L3_Lat_Bending	L2_L3_axial_rotation	L1_L2_Flex_Ext	L1_L2_Lat_Bending	L1_L2_axial_rotation	L1_T12_Flex_Ext	L1_T12_Lat_Bending	L1_T12_axial_rotation	Abs_r3	Abs_r2	Abs_r1	Abs_t1	Abs_t2	neck_flexion	neck_bending	neck_rotation	arm_flex_r	arm_add_r	arm_rot_r	elbow_flex_r	pro_sup_r	wrist_flex_r	wrist_dev_r	arm_flex_l	arm_add_l	arm_rot_l	elbow_flex_l	pro_sup_l	wrist_flex_l	wrist_dev_l
      0.00000000	      5.04117051	     -3.59994198	     85.82168647	      0.46222841	      0.64310495	      0.66160123	      4.11503401	      1.30917778	     -5.89199158	     12.78495790	      0.22313961	     27.37466948	      6.47954610	      0.00000000	      4.04175941	     -3.56930482	    -11.36023170	     10.75391957	      0.18769130	     30.24160959	      8.43808379	      0.00000000	      0.14922791	      0.31990078	     -0.12061228	      0.27713116	      0.42546804	     -0.12815055	      0.24516654	      0.77780675	     -0.12815055	      0.17055258	      0.77780675	     -0.10553575	      0.13857304	      0.65234167	     -0.09799748	      0.08526883	      0.49552631	     -0.09045921	      1.06592007	      3.61878158	     -0.67080934	      0.00000000	      0.00000000	     27.39460426	     -0.91746297	      3.57194559	     20.58045302	     -6.80588665	     78.51252895	     37.59156133	     84.51149080	     12.26786134	     17.98296550	     12.24241102	     -5.41554208	     56.45872954	     40.84041437	     85.02138800	     -0.01203316	     18.57158661
      0.01694915	      5.03183074	     -3.41371131	     86.13764114	      0.46117822	      0.64315250	      0.66112376	      3.76627399	      1.13585684	     -6.84379676	     12.64639418	      0.22072122	     27.59198195	      7.78605239	      0.00000000	      4.16598605	     -3.52094126	    -10.86212946	     11.49515477	      0.20062830	     30.52577121	      8.21353256	      0.00000000	      0.13445061	      0.32274149	     -0.12297752	      0.24968823	      0.42924618	     -0.13066362	      0.22088891	      0.78471365	     -0.13066362	      0.15366360	      0.78471365	     -0.10760533	      0.12485084	      0.65813444	     -0.09991924	      0.07682508	      0.49992656	     -0.09223314	      0.96036726	      3.65091624	     -0.68396408	      0.00000000	      0.00000000	     27.30166762	     -1.25846554	      3.14636905	     19.83942983	     -6.94408021	     75.28744733	     37.64347180	     80.83350178	     11.65968909	     19.23533703	     13.53393964	     -5.39481256	     59.40185619	     40.58831117	     87.33516321	     -1.17740333	     18.45494709
      0.03389831	      5.01441123	     -3.27671647	     86.48829221	      0.46033107	      0.64309377	      0.66056406	      3.49493800	      0.95621330	     -8.06157888	     12.55726525	      0.21916562	     27.99146267	      9.35468595	      0.00000000	      4.21012226	     -3.46668568	    -10.44899084	     11.89185363	      0.20755200	     30.77990672	      8.39872520	      0.00000000	      0.12865174	      0.32167619	     -0.15104367	      0.23891915	      0.42782933	     -0.16048390	      0.21136195	      0.78212349	     -0.16048390	      0.14703608	      0.78212349	     -0.13216321	      0.11946601	      0.65596209	     -0.12272298	      0.07351161	      0.49827642	     -0.11328275	      0.91894654	      3.63886539	     -0.84005957	      0.00000000	      0.00000000	     27.21863696	     -1.28546864	      2.95439252	     19.56795895	     -7.12977863	     75.83739892	     37.64261309	     59.84419411	      6.64771447	     23.57804867	     14.31661255	     -5.36372326	     61.25947100	     40.39334065	     88.08249594	     -1.87327229	     18.52292109
      0.05084746	      5.03011559	     -3.19325538	     87.00630521	      0.45937994	      0.64291896	      0.65993923	      3.24069612	      0.92972770	     -8.45250378	     12.35003851	      0.21554883	     28.15280733	      9.48616218	      0.00000000	      4.30283591	     -3.34696017	     -9.04993465	     12.13819849	      0.21185153	     30.87415411	      7.40104136	      0.00000000	      0.12905578	      0.32266521	     -0.22584391	      0.23966948	      0.42914472	     -0.23995915	      0.21202573	      0.78452818	     -0.23995915	      0.14749785	      0.78452818	     -0.19761342	      0.11984119	      0.65797889	     -0.18349818	      0.07374247	      0.49980840	     -0.16938293	      0.92183250	      3.65005333	     -1.25607607	      0.00000000	      0.00000000	     27.20864264	     -1.43781909	      2.65130751	     19.21915337	     -7.24677069	     74.98322931	     37.75270893	     56.60314539	      5.59834930	     24.15289472	     14.64616210	     -5.32896780	     62.30879479	     40.29575255	     88.32774050	     -2.89539474	     18.46600784
      0.06779661	      4.90628710	     -3.09009888	     87.10044182	      0.45939765	      0.64290366	      0.65929372	      3.05026005	      0.73070058	     -9.18210007	     12.26898347	      0.21413416	     28.54541423	     10.60851312	      0.00000000	      4.15030869	     -3.32084035	    -10.32558917	     12.08194521	      0.21086972	     31.26860868	      9.43491627	      0.00000000	      0.12719028	      0.30019916	     -0.21197943	      0.23620507	      0.39926488	     -0.22522815	      0.20896091	      0.72990423	     -0.22522815	      0.14536577	      0.72990423	     -0.18548201	      0.11810889	      0.61216612	     -0.17223329	      0.07267652	      0.46500849	     -0.15898458	      0.90850744	      3.39591288	     -1.17896602	      0.00000000	      0.00000000	     27.14963080	     -1.31389067	      2.35280099	     19.13354298	     -7.31411046	     76.40003130	     38.02061094	     41.33206480	      0.65843356	     25.88939703	     14.98013321	     -5.35417375	     63.28736283	     40.06765132	     88.35214179	     -2.82781805	     18.42022537
      0.08474576	      4.88186238	     -3.04768323	     87.56785138	      0.45893169	      0.64267827	      0.65853889	      2.85670045	      0.78245501	     -8.79202328	     12.03755003	      0.21009488	     28.62687776	      9.64436176	      0.00000000	      4.11132261	     -3.19957061	     -9.42934012	     11.93974276	      0.20838782	     31.41003379	      9.08011101	      0.00000000	      0.13173840	      0.28983062	     -0.28035224	      0.24465138	      0.38547472	     -0.29787425	      0.21643301	      0.70469416	     -0.29787425	      0.15056382	      0.70469416	     -0.24530821	      0.12233228	      0.59102259	     -0.22778619	      0.07527532	      0.44894762	     -0.21026418	      0.94099420	      3.27862190	     -1.55923503	      0.00000000	      0.00000000	     27.18247415	     -1.29212257	      2.06872466	     18.76103246	     -7.34473169	     75.74743982	     38.09591280	     39.98857198	     -0.01721080	     26.51118316	     14.78616547	     -5.35588090	     62.97323970	     40.08361206	     88.34723989	     -2.57241429	     18.77713212
      0.10169492	      4.85917644	     -2.87173952	     87.98955482	      0.45846598	      0.64284266	      0.65785719	      2.47633136	      0.83553680	     -8.42653832	     11.68078601	      0.20386818	     28.61781953	      8.82786917	      0.00000000	      3.78356347	     -3.01479765	     -8.21377410	     11.46334681	      0.20007315	     31.16505119	      8.17453445	      0.00000000	      0.11321980	      0.28018445	     -0.32578861	      0.21026050	      0.37264532	     -0.34615040	      0.18600882	      0.68124047	     -0.34615040	      0.12939891	      0.68124047	     -0.28506503	      0.10513591	      0.57135213	     -0.26470324	      0.06469380	      0.43400571	     -0.24434146	      0.80871773	      3.16950252	     -1.81193850	      0.00000000	      0.00000000	     27.27985311	     -1.14524967	      1.83960279	     18.77607047	     -7.42451147	     76.38720532	     38.01133364	     39.95249783	     -0.13529795	     25.65081158	     15.08863262	     -5.35361094	     64.31170796	     39.70056665	     87.98731721	     -2.74117222	     18.03219828
      0.11864407	      4.78863468	     -2.97805415	     88.21341310	      0.45839810	      0.64247181	      0.65722591	      2.59707048	      0.59635292	    -10.22711067	     11.82591219	      0.20640110	     29.30470643	     11.24859306	      0.00000000	      3.81960798	     -3.01640774	     -9.08686431	     11.28876317	      0.19702609	     31.58104986	      9.76190492	      0.00000000	      0.14132380	      0.26464379	     -0.32177213	      0.26245244	      0.35197623	     -0.34188289	      0.23218088	      0.64345490	     -0.34188289	      0.16151898	      0.64345490	     -0.28155062	      0.13123328	      0.53966161	     -0.26143986	      0.08075242	      0.40993322	     -0.24132910	      1.00946180	      2.99370343	     -1.78960008	      0.00000000	      0.00000000	     27.26516581	     -1.20316020	      1.43664056	     18.36268519	     -7.60889379	     76.35364003	     38.90882413	     27.32799655	     -5.47007895	     27.06168538	     14.82345336	     -5.29194259	     63.79417437	     39.69718541	     88.27831997	     -1.25600827	     19.07709982
